# xmcd
#
# Track frame offsets:
#	150
#	17685
#	35342
#	52497
#	70800
#	89142
#	103987
#	119975
#	135325
#
# Disc length: 2056 seconds
#
# Revision: 2
# Processed by: cddbd v1.5.2PL0 Copyright (c) Steve Scherf et al.
# Submitted via: EasyCDDAExtractor 15.3.0.1
#
DISCID=8a080609
DTITLE=Cher - I Paralyze
DYEAR=1982
DGENRE=Pop
TTITLE0=Rudy
TTITLE1=Games
TTITLE2=I Paralyze
TTITLE3=When The Love Is Gone
TTITLE4=Say What's On Your Mind
TTITLE5=Back On The Street Again
TTITLE6=Walk With Me
TTITLE7=The Book Of Love
TTITLE8=Do I Ever Cross Your Mind
EXTD=
EXTT0=
EXTT1=
EXTT2=
EXTT3=
EXTT4=
EXTT5=
EXTT6=
EXTT7=
EXTT8=
PLAYORDER=
